<?xml version="1.0" standalone="no"?>
<!DOCTYPE svg PUBLIC "-//W3C//DTD SVG 20010904//EN"
 "http://www.w3.org/TR/2001/REC-SVG-20010904/DTD/svg10.dtd">
<svg version="1.0" xmlns="http://www.w3.org/2000/svg"
 width="1408.000000pt" height="736.000000pt" viewBox="0 0 1408.000000 736.000000"
 preserveAspectRatio="xMidYMid meet">

<g transform="translate(0.000000,736.000000) scale(0.100000,-0.100000)"
fill="#000000" stroke="none">
<path d="M5095 3904 c-94 -157 -171 -292 -172 -298 -1 -6 75 -139 171 -296
l173 -285 381 -3 382 -2 0 355 0 355 -177 -2 -177 -3 -77 -130 c-43 -71 -77
-130 -76 -131 5 -5 99 -13 150 -13 l57 -1 0 -65 0 -65 -144 0 -144 0 -60 98
c-32 53 -72 119 -87 145 l-27 48 83 137 c45 75 88 140 93 144 6 4 99 8 207 8
l196 0 82 136 c44 74 81 139 81 143 0 3 -168 8 -373 9 l-372 3 -170 -287z"/>
<path d="M7005 4081 c-63 -27 -80 -106 -31 -147 15 -14 40 -24 57 -24 41 0 89
48 89 89 0 56 -65 103 -115 82z"/>
<path d="M8600 3671 l0 -291 35 0 34 0 3 95 3 96 79 -96 c79 -94 80 -95 125
-95 l45 0 -25 28 c-14 15 -56 62 -94 105 l-68 78 89 90 89 89 -45 -1 c-44 0
-47 -3 -120 -85 l-75 -85 -5 178 -5 178 -32 3 -33 3 0 -290z"/>
<path d="M6491 3921 c-68 -24 -99 -47 -137 -103 -90 -133 -55 -335 70 -413 47
-28 55 -30 155 -30 68 0 118 5 139 14 l33 14 -3 131 -3 131 -87 0 -88 0 0 -27
c0 -27 2 -28 55 -28 l55 0 0 -84 c0 -49 -4 -88 -11 -91 -5 -4 -40 -7 -77 -8
-82 -1 -140 26 -177 82 -51 76 -51 206 0 283 54 82 185 109 298 63 14 -6 17
-2 17 28 0 34 -1 36 -50 46 -72 16 -127 13 -189 -8z"/>
<path d="M7338 3924 c-5 -4 -8 -131 -8 -282 l0 -275 113 5 c93 3 119 8 153 27
52 29 78 73 78 131 -1 60 -25 103 -70 125 l-38 18 27 14 c80 41 73 179 -11
219 -39 19 -230 33 -244 18z m217 -84 c27 -25 33 -67 14 -102 -14 -27 -69 -48
-124 -48 l-45 0 0 91 0 91 65 -4 c50 -3 70 -9 90 -28z m-3 -221 c13 -7 28 -19
35 -28 15 -20 17 -86 2 -113 -15 -28 -70 -48 -134 -48 l-55 0 0 106 0 107 65
-6 c36 -4 75 -12 87 -18z"/>
<path d="M6968 3770 c-80 -24 -130 -100 -130 -199 0 -106 43 -172 129 -197 62
-18 136 -8 183 26 88 63 95 258 13 332 -46 42 -129 58 -195 38z m130 -66 c80
-56 72 -234 -13 -272 -94 -43 -178 25 -177 144 1 93 43 144 122 144 25 0 56
-7 68 -16z"/>
<path d="M7835 3765 c-22 -8 -41 -15 -42 -15 -4 0 -3 -60 0 -60 2 0 18 7 35
16 17 8 51 16 74 16 34 0 47 -5 65 -26 25 -30 30 -64 11 -70 -7 -2 -46 -9 -86
-16 -86 -14 -126 -42 -143 -100 -16 -52 11 -107 64 -133 33 -16 44 -17 86 -7
27 6 58 21 68 32 18 20 18 20 23 -4 5 -18 13 -23 35 -23 l30 0 0 150 c0 163
-9 202 -52 230 -35 23 -120 28 -168 10z m155 -231 c0 -44 -25 -88 -57 -103
-59 -27 -123 1 -123 54 0 31 30 62 67 71 16 3 33 7 38 9 6 2 25 4 43 4 30 1
32 -1 32 -35z"/>
<path d="M8300 3769 c-14 -6 -35 -20 -47 -31 l-23 -21 0 27 c0 25 -3 27 -31
24 l-31 -3 0 -194 1 -194 30 -2 31 -3 0 129 c0 181 19 219 108 219 28 0 45 -7
63 -26 23 -24 24 -33 27 -175 l4 -149 29 0 29 0 0 150 c0 171 -9 208 -62 240
-35 21 -87 25 -128 9z"/>
</g>
</svg>
